# xmcd
#
# Track frame offsets:
#	150
#	15930
#	34999
#	51396
#	71151
#	90499
#	105621
#	122927
#	136001
#	155180
#
# Disc length: 2278 seconds
#
# Revision: 1
# Processed by: cddbd v1.5.2PL0 Copyright (c) Steve Scherf et al.
# Submitted via: audiograbber 1.83.01
#
DISCID=8608e40a
DTITLE=Heidi Newfield - What Am I waiting For
DYEAR=2008
DGENRE=Country
TTITLE0=Can't Let Go
TTITLE1=When Tears Fall Down
TTITLE2=Johnny and June
TTITLE3=What Am I waiting For
TTITLE4=Love Her and Lose Me
TTITLE5=Cry Cry ('Till The Sun Shine)
TTITLE6=Wreck You
TTITLE7=Nothin' Burns Like A Memory
TTITLE8=All I wanna Do
TTITLE9=Knocked Up
EXTD=
EXTT0=
EXTT1=
EXTT2=
EXTT3=
EXTT4=
EXTT5=
EXTT6=
EXTT7=
EXTT8=
EXTT9=
PLAYORDER=
